<?xml version="1.0" encoding="utf-8"?>
<!-- Generator: Adobe Illustrator 16.0.0, SVG Export Plug-In . SVG Version: 6.00 Build 0)  -->
<!DOCTYPE svg PUBLIC "-//W3C//DTD SVG 1.1//EN" "http://www.w3.org/Graphics/SVG/1.1/DTD/svg11.dtd">
<svg version="1.1" id="Capa_1" xmlns="http://www.w3.org/2000/svg" xmlns:xlink="http://www.w3.org/1999/xlink" x="0px" y="0px"
	 width="512px" height="512px" viewBox="0 0 512 512" enable-background="new 0 0 512 512" xml:space="preserve">
<g>
	<g>
		<path fill="#0CAE69" d="M134.119,479.5l264.55,13.665h33.231c20.135,0,36.516-16.389,36.516-36.514V77.515
			c0-20.127-16.381-36.516-36.516-36.516H149.094c-20.132,0-36.516,16.389-36.516,36.516v23.32 M79.337,553 M439.205,456.651
			c0,4.021-3.275,7.304-7.305,7.304H149.094c-4.03,0-7.303-3.282-7.303-7.304V77.515c0-4.024,3.273-7.304,7.303-7.304H431.9
			c4.03,0,7.305,3.28,7.305,7.304L439.205,456.651L439.205,456.651z"/>
		<path fill="#0CAE69" d="M397.606,131.716H183.39c-8.065,0-14.606,6.545-14.606,14.604c0,8.074,6.542,14.606,14.606,14.606h214.213
			c8.067,0,14.606-6.533,14.606-14.606C412.211,138.262,405.67,131.716,397.606,131.716z"/>
		<path fill="#0CAE69" d="M397.606,201.236H183.39c-8.065,0-14.606,6.543-14.606,14.604c0,8.072,6.542,14.606,14.606,14.606h214.213
			c8.067,0,14.606-6.535,14.606-14.606C412.211,207.781,405.67,201.236,397.606,201.236z"/>
		<path fill="#0CAE69" d="M397.606,270.755H183.39c-8.065,0-14.606,6.547-14.606,14.607c0,8.071,6.542,14.604,14.606,14.604h214.213
			c8.067,0,14.606-6.533,14.606-14.604C412.211,277.302,405.67,270.755,397.606,270.755z"/>
		<path fill="#0CAE69" d="M345.24,340.276H180.047c-6.219,0-11.264,6.547-11.264,14.604c0,8.077,5.045,14.607,11.264,14.607h165.189
			c6.222,0,11.264-6.532,11.264-14.607C356.502,346.823,351.458,340.276,345.24,340.276z"/>
		<path fill="#0CAE69" d="M448.5,54.5L183.084,39.835h-33.231c-20.135,0-36.516,16.389-36.516,36.514v379.136
			c0,20.127,16.381,36.516,36.516,36.516h282.807c20.132,0,36.516-16.389,36.516-36.516v-23.32 M502.416-20 M142.548,76.348
			c0-4.021,3.275-7.304,7.305-7.304h282.807c4.03,0,7.303,3.282,7.303,7.304v379.136c0,4.024-3.273,7.304-7.303,7.304H149.854
			c-4.03,0-7.305-3.28-7.305-7.304L142.548,76.348L142.548,76.348z"/>
	</g>
</g>
</svg>
