<?xml version="1.0" encoding="utf-8"?>
<!-- Generator: Adobe Illustrator 16.0.0, SVG Export Plug-In . SVG Version: 6.00 Build 0)  -->
<!DOCTYPE svg PUBLIC "-//W3C//DTD SVG 1.1//EN" "http://www.w3.org/Graphics/SVG/1.1/DTD/svg11.dtd">
<svg version="1.1" id="Capa_1" xmlns="http://www.w3.org/2000/svg" xmlns:xlink="http://www.w3.org/1999/xlink" x="0px" y="0px"
	 width="512px" height="512px" viewBox="0 0 512 512" enable-background="new 0 0 512 512" xml:space="preserve">
<g>
	<path fill="#0CAE69" d="M25.121,344.871l91.301,91.3c3.55,3.553,7.807,5.328,12.762,5.328c4.863,0,9.069-1.775,12.622-5.328
		l10.518-10.519c3.554-3.366,5.329-7.573,5.329-12.622s-1.775-9.256-5.329-12.623l-53.45-41.231h150.72
		c4.861,0,8.812-1.753,11.851-5.26S266,346.178,266,341.224v-17.952c0-4.955-1.52-9.185-4.557-12.691
		c-3.039-3.507-6.99-5.258-11.851-5.258H98.873l53.451-41.094c3.555-3.551,5.33-7.806,5.33-12.763c0-4.956-1.775-9.21-5.33-12.761
		l-10.517-10.518c-3.647-3.46-7.854-5.189-12.623-5.189c-4.862,0-9.118,1.729-12.763,5.189l-91.299,91.299
		c-3.459,3.46-5.19,7.713-5.19,12.763C19.932,337.391,21.664,341.6,25.121,344.871z"/>
</g>
<g>
	<path fill="#0CAE69" d="M474.382,206.135l-91.301-91.3c-3.551-3.553-7.807-5.328-12.762-5.328c-4.863,0-9.07,1.775-12.623,5.328
		l-10.518,10.519c-3.553,3.366-5.328,7.573-5.328,12.622s1.775,9.256,5.328,12.623l53.451,41.231H249.909
		c-4.861,0-8.811,1.753-11.85,5.26s-4.559,7.737-4.559,12.691v17.952c0,4.955,1.521,9.185,4.559,12.691
		c3.039,3.507,6.988,5.258,11.85,5.258H400.63l-53.451,41.094c-3.555,3.551-5.33,7.805-5.33,12.762s1.775,9.211,5.33,12.762
		l10.516,10.518c3.648,3.459,7.855,5.189,12.623,5.189c4.863,0,9.119-1.73,12.764-5.189l91.299-91.299
		c3.459-3.46,5.19-7.713,5.19-12.763C479.571,213.615,477.839,209.406,474.382,206.135z"/>
</g>
</svg>
