<?xml version="1.0" encoding="utf-8"?>
<!-- Generator: Adobe Illustrator 16.0.0, SVG Export Plug-In . SVG Version: 6.00 Build 0)  -->
<!DOCTYPE svg PUBLIC "-//W3C//DTD SVG 1.1//EN" "http://www.w3.org/Graphics/SVG/1.1/DTD/svg11.dtd">
<svg version="1.1" id="Calque_1" xmlns="http://www.w3.org/2000/svg" xmlns:xlink="http://www.w3.org/1999/xlink" x="0px" y="0px"
	 width="595.279px" height="283.46px" viewBox="0 0 595.279 283.46" enable-background="new 0 0 595.279 283.46"
	 xml:space="preserve">
<g transform="translate(-570 -140)">
	<g>
		<circle fill="#003366" cx="837.405" cy="283.62" r="30.235"/>
		<path fill="#003366" d="M776.933,298.738h9.781c6.509,21.853,26.721,37.795,50.69,37.795c68.03,0,37.795-75.59,75.59-75.59
			c37.794,0,60.471,0,60.471,0v-30.235h-87.963c0,4.18-3.379,7.559-7.56,7.559h-15.117c-4.173,0-7.56-3.379-7.56-7.559h-17.861
			c-23.97,0-44.182,15.941-50.69,37.794h-9.781c-8.345,0-15.117,6.765-15.117,15.118c0,5.579,3.062,10.401,7.559,13.024
			 M769.805,285.729c-0.212-0.681-0.431-1.354-0.431-2.109c0-4.18,3.387-7.559,7.559-7.559c4.173,0,7.56,3.379,7.56,7.559
			c0,4.181-3.387,7.56-7.56,7.56C770.724,291.063,769.805,285.729,769.805,285.729z M837.405,321.415
			c-16.796,0-30.863-11.028-35.784-26.177c-1.201-3.682-2.011-7.536-2.011-11.618c0-4.082,0.81-7.937,2.011-11.618
			c4.921-15.148,18.996-26.176,35.784-26.176c20.878,0,37.795,16.917,37.795,37.794
			C875.199,304.498,858.282,321.415,837.405,321.415z"/>
		<polygon fill="#003366" points="877.943,155.118 862.825,155.118 870.384,215.589 		"/>
		<polygon fill="#003366" points="817.858,167.492 807.169,178.18 855.266,215.589 		"/>
		<polygon fill="#003366" points="922.919,167.492 885.502,215.589 933.607,178.18 		"/>
	</g>
</g>
</svg>
