<svg xmlns="http://www.w3.org/2000/svg" xmlns:xlink="http://www.w3.org/1999/xlink" version="1.1" x="0px" y="0px" viewBox="0 0 30 37.5" xml:space="preserve"><g transform="translate(-570 -140)"><g xmlns="http://www.w3.org/2000/svg" xmlns:xlink="http://www.w3.org/1999/xlink"><circle cx="581" cy="159" r="4"/><path d="M587.363,152c0,0.553-0.447,1-1,1h-2c-0.552,0-1-0.447-1-1H581c-3.171,0-5.845,2.109-6.706,5H573c-1.104,0-2,0.895-2,2    c0,0.738,0.405,1.376,1,1.723v2.777c0,0.276,0.224,0.5,0.5,0.5c0.276,0,0.5-0.224,0.5-0.5V161h1.294c0.861,2.891,3.535,5,6.706,5    c9,0,5-10,10-10s8,0,8,0v-4H587.363z M573,160v-0.5c0-0.276-0.224-0.5-0.5-0.5c-0.196,0-0.361,0.115-0.443,0.279    C572.029,159.189,572,159.1,572,159c0-0.553,0.448-1,1-1c0.552,0,1,0.447,1,1S573.552,160,573,160z M581,164    c-2.222,0-4.083-1.459-4.734-3.463C576.107,160.05,576,159.54,576,159s0.107-1.05,0.266-1.537    c0.651-2.004,2.513-3.463,4.734-3.463c2.762,0,5,2.238,5,5S583.762,164,581,164z"/><polygon points="586.363,142 584.363,142 585.363,150   "/><polygon points="578.414,143.637 577,145.051 583.363,150   "/><polygon points="592.313,143.637 587.363,150 593.727,145.051   "/></g></g><text x="0" y="45" fill="#000000" font-size="5px" font-weight="bold" font-family="'Helvetica Neue', Helvetica, Arial-Unicode, Arial, Sans-serif">Created by Hea Poh Lin</text><text x="0" y="50" fill="#000000" font-size="5px" font-weight="bold" font-family="'Helvetica Neue', Helvetica, Arial-Unicode, Arial, Sans-serif">from the Noun Project</text></svg>