<svg xmlns="http://www.w3.org/2000/svg" xmlns:xlink="http://www.w3.org/1999/xlink" version="1.1" x="0px" y="0px" viewBox="0 0 100 125" enable-background="new 0 0 100 100" xml:space="preserve"><g><polygon points="67.011,41.458 61.418,26.142 43.099,21.762 31.451,34.224 37.08,52.101 54.467,55.183  "/><polygon points="58.583,73.122 73.21,75.675 84.959,63.016 82.068,46.303 68.773,43.047 56.161,56.853  "/><polygon points="17.432,34.277 9.971,48.523 14.834,63.748 27.08,66.532 34.871,53.006 29.224,35.05  "/><path d="M91.859,33.344c-0.088-0.218-0.153-0.445-0.241-0.664C84.825,16.433,68.773,4.979,50.091,4.979   c-24.816,0-45.007,20.189-45.007,45.004c0,24.81,20.19,44.997,45.007,44.997c24.808,0,44.993-20.187,44.993-44.997   C95.084,44.104,93.92,38.498,91.859,33.344z M46.583,92.427c-3.916-0.32-7.67-1.178-11.215-2.486   c-0.441-0.168-0.891-0.307-1.323-0.483l0.088-0.612l5.513-0.428l-0.079-6.384L27.061,68.964l-11.875-2.695l0.719,9.095   c-0.45-0.603-0.91-1.192-1.327-1.823C10.087,66.793,7.46,58.695,7.46,49.983c0-0.288,0.125-2.499,0.139-2.759h0.372l7.656-14.62   l3.397-11.745c0.566-0.603,1.146-1.192,1.745-1.763c0.362-0.344,3.461-2.996,4.724-3.889l9.183-4.019l-0.009-0.027l1.931-0.814   l0.019,0.021l5.494-2.239c1.513-0.288,3.058-0.48,4.626-0.604c0.849-0.067,1.698-0.114,2.557-0.13l0.13,0.318L38.086,12.33   l5.304,7.061l18.724,4.475l9.206-5.687l-6.032-7.898l0.075-0.056c0.673,0.258,1.341,0.518,2,0.81   c0.798,0.357,1.587,0.736,2.361,1.14l4.558,5.965l12.543,13.794l1.981,0.309c0.199,0.434,0.421,0.856,0.607,1.297   c0.177,0.417,0.307,0.854,0.469,1.276l-2.766-0.431l-2.794,10.998l2.947,17.058l3.281,0.883c-0.126,0.38-0.274,0.741-0.413,1.118   c-3.347,9.267-9.802,17.025-18.126,22.037c-0.45,0.274-0.887,0.566-1.346,0.816l1.605-9.374l-14.584-2.542L41.948,82.32   l0.083,6.664l5.944,2.784l-0.176,0.719C47.396,92.464,46.987,92.46,46.583,92.427z"/></g><text x="0" y="115" fill="#000000" font-size="5px" font-weight="bold" font-family="'Helvetica Neue', Helvetica, Arial-Unicode, Arial, Sans-serif">Created by Hayley Warren</text><text x="0" y="120" fill="#000000" font-size="5px" font-weight="bold" font-family="'Helvetica Neue', Helvetica, Arial-Unicode, Arial, Sans-serif">from the Noun Project</text></svg>